# xmcd
#
# Track frame offsets: 
#        150
#        18877
#        39042
#        54402
#        69677
#        89805
#        106185
#        123512
#        141437
#        154495
#
# Disc length: 2287 seconds
#
# Revision: 1
# Processed by: cddbd v1.5PL3 Copyright (c) Steve Scherf et al.
# Submitted via: ExactAudioCopy v0.90b4
#
DISCID=8708ed0a
DTITLE=John Michael Montgomery - Letters From Home
DYEAR=2004
DGENRE=Country
TTITLE0=Good Ground
TTITLE1=Letters From Home
TTITLE2=That's What I'm Talking About
TTITLE3=Look At Me Now
TTITLE4=Goes Good With Beer
TTITLE5=Cool
TTITLE6=It Rocked
TTITLE7=That Changes Everything
TTITLE8=Break This Chain
TTITLE9=Little Devil
EXTD=YEAR: 2004
EXTT0=
EXTT1=
EXTT2=
EXTT3=
EXTT4=
EXTT5=
EXTT6=
EXTT7=
EXTT8=
EXTT9=
PLAYORDER=
